<svg id="visual" viewBox="0 0 390 844" width="390" height="844" xmlns="http://www.w3.org/2000/svg" xmlns:xlink="http://www.w3.org/1999/xlink" version="1.1"><rect width="390" height="844" fill="#ffffff"></rect><g><g transform="translate(219 466)"><path d="M66.4 -23.4C74.8 4.4 62.7 37.1 38.9 54.6C15.1 72.2 -20.5 74.7 -43.4 58.4C-66.3 42.1 -76.6 6.9 -67.2 -22.2C-57.9 -51.3 -28.9 -74.4 0 -74.4C29 -74.4 57.9 -51.3 66.4 -23.4Z" stroke="#232374" fill="none" stroke-width="11"></path></g><g transform="translate(39 689)"><path d="M50.8 -16C57.3 3.6 48.3 28.8 30.8 41.1C13.4 53.5 -12.4 53 -30 40.4C-47.5 27.8 -56.9 3.2 -50.6 -16.2C-44.2 -35.6 -22.1 -49.6 0 -49.6C22.1 -49.6 44.3 -35.6 50.8 -16Z" stroke="#232374" fill="none" stroke-width="11"></path></g><g transform="translate(255 221)"><path d="M39.5 -12.8C45.1 4.4 39.3 25.2 25.9 34.8C12.5 44.3 -8.6 42.6 -23.4 31.9C-38.1 21.2 -46.7 1.6 -41.7 -14.6C-36.8 -30.8 -18.4 -43.7 -0.7 -43.4C17 -43.2 33.9 -29.9 39.5 -12.8Z" stroke="#232374" fill="none" stroke-width="11"></path></g><g transform="translate(321 777)"><path d="M43.6 -14C50.3 6.4 45.1 30.7 29.1 43.1C13.1 55.4 -13.8 55.7 -30.1 43.3C-46.5 31 -52.4 6 -45.6 -14.5C-38.9 -35.1 -19.4 -51.2 -0.5 -51C18.5 -50.9 36.9 -34.4 43.6 -14Z" stroke="#232374" fill="none" stroke-width="11"></path></g><g transform="translate(79 69)"><path d="M46.8 -15.4C54.1 7.3 49 33.8 32.9 45.6C16.8 57.3 -10.3 54.3 -28 40.9C-45.8 27.4 -54.2 3.5 -48 -17.6C-41.8 -38.8 -20.9 -57.2 -0.6 -57C19.7 -56.8 39.5 -38 46.8 -15.4Z" stroke="#232374" fill="none" stroke-width="11"></path></g><g transform="translate(5 357)"><path d="M63 -21.3C71.2 4.6 60 35.9 38.5 51.1C17 66.3 -14.9 65.3 -35.9 49.9C-56.9 34.5 -67.1 4.7 -59.3 -20.7C-51.5 -46.2 -25.7 -67.3 0.8 -67.5C27.4 -67.8 54.9 -47.3 63 -21.3Z" stroke="#232374" fill="none" stroke-width="11"></path></g></g></svg>